<?xml version="1.0" encoding="UTF-8"?>
<svg xmlns="http://www.w3.org/2000/svg" id="a" width="865.76" height="682.89" viewBox="0 0 865.76 682.89">
  <rect x="62.21" y="566.45" width="741.34" height=".37" fill="#ebebeb"></rect>
  <rect x="178.66" y="578.89" width="49.11" height=".37" fill="#ebebeb"></rect>
  <rect x="259.9" y="589.58" width="44.73" height=".37" fill="#ebebeb"></rect>
  <rect x="146.5" y="592.65" width="56.71" height=".37" fill="#ebebeb"></rect>
  <rect x="705.7" y="591.85" width="23.57" height=".37" fill="#ebebeb"></rect>
  <rect x="642.64" y="591.85" width="58.3" height=".37" fill="#ebebeb"></rect>
  <rect x="432.88" y="578.7" width="44.97" height=".37" fill="#ebebeb"></rect>
  <rect x="484.29" y="578.7" width="106.9" height=".37" fill="#ebebeb"></rect>
  <path d="M413.61,500.32H127.32c-4.67,0-8.45-3.79-8.45-8.46V89.41c.04-4.64,3.81-8.38,8.45-8.39H413.61c4.68,0,8.47,3.79,8.47,8.47h0V491.86c0,4.67-3.8,8.46-8.47,8.46ZM127.32,81.32c-4.46,0-8.08,3.63-8.08,8.09V491.86c0,4.46,3.62,8.08,8.08,8.09H413.61c4.47,0,8.08-3.62,8.09-8.09V89.41c0-4.47-3.62-8.09-8.09-8.09H127.32Z" fill="#ebebeb"></path>
  <path d="M734.33,500.32H448.02c-4.67,0-8.45-3.79-8.46-8.46V89.41c.05-4.64,3.82-8.38,8.46-8.39h286.31c4.63,.02,8.39,3.76,8.43,8.39V491.86c0,4.66-3.77,8.44-8.43,8.46ZM448.02,81.32c-4.47,0-8.09,3.62-8.09,8.09V491.86c.01,4.46,3.63,8.08,8.09,8.09h286.31c4.47,0,8.08-3.62,8.09-8.09V89.41c0-4.47-3.62-8.09-8.09-8.09H448.02Z" fill="#ebebeb"></path>
  <g>
    <rect x="434.64" y="426.79" width="296.05" height="32.13" transform="translate(-142.49 541.72) rotate(-45)" fill="#fff"></rect>
    <path d="M489.36,559.59l-23.43-23.43,210.05-210.05,23.43,23.43-210.05,210.05Zm-22.01-23.43l22.01,22.01,208.63-208.63-22.01-22.01-208.63,208.63Z" fill="#002346"></path>
  </g>
  <polygon points="598.84 449.39 576.13 426.66 545.15 457.64 565.99 490.86 598.84 449.39" fill="#e0e0e0"></polygon>
  <g>
    <rect x="449.79" y="450.64" width="296.05" height="10.7" transform="translate(-147.34 556.28) rotate(-45)" fill="#e6e7e8"></rect>
    <path d="M496.93,565.15l-8.27-8.27,210.05-210.05,8.27,8.27-210.05,210.05Zm-6.86-8.27l6.86,6.86,208.63-208.63-6.86-6.86-208.63,208.63Z" fill="#002346"></path>
  </g>
  <g>
    <rect x="566.61" y="302.39" width="32.13" height="296.05" transform="translate(-147.83 543.94) rotate(-45)" fill="#fff"></rect>
    <path d="M675.99,567.15l-210.05-210.05,23.43-23.43,210.05,210.05-23.43,23.43Zm-208.63-210.05l208.63,208.63,22.01-22.01-208.63-208.63-22.01,22.01Z" fill="#002346"></path>
  </g>
  <g>
    <rect x="592.46" y="287.25" width="10.7" height="296.05" transform="translate(-132.69 550.21) rotate(-45)" fill="#e6e7e8"></rect>
    <path d="M698.7,544.44l-210.05-210.05,8.27-8.27,210.05,210.05-8.27,8.27Zm-208.63-210.05l208.63,208.63,6.86-6.86-208.63-208.63-6.86,6.86Z" fill="#002346"></path>
  </g>
  <g>
    <rect x="117.96" y="457.76" width="230.41" height="25.01" transform="translate(-264.23 302.61) rotate(-45)" fill="#fff"></rect>
    <path d="M160.54,561.27l-18.39-18.39,163.63-163.63,18.39,18.39-163.63,163.63Zm-16.98-18.39l16.98,16.98,162.22-162.22-16.98-16.98-162.22,162.22Z" fill="#002346"></path>
  </g>
  <g>
    <rect x="129.73" y="477.88" width="230.41" height="8.33" transform="translate(-269.12 314.38) rotate(-45)" fill="#e6e7e8"></rect>
    <path d="M166.42,567.16l-6.6-6.6,163.63-163.63,6.6,6.6-163.63,163.63Zm-5.18-6.6l5.18,5.18,162.22-162.22-5.18-5.18-162.22,162.22Z" fill="#002346"></path>
  </g>
  <g>
    <rect x="220.66" y="360.95" width="25.01" height="230.41" transform="translate(-268.4 304.34) rotate(-45)" fill="#fff"></rect>
    <path d="M305.79,567.17l-163.63-163.63,18.39-18.39,163.63,163.63-18.39,18.39Zm-162.22-163.63l162.22,162.22,16.98-16.98-162.22-162.22-16.98,16.98Z" fill="#002346"></path>
  </g>
  <g>
    <rect x="240.76" y="349.15" width="8.33" height="230.41" transform="translate(-256.61 309.2) rotate(-45)" fill="#e6e7e8"></rect>
    <path d="M323.45,549.47l-163.63-163.63,6.6-6.6,163.63,163.63-6.6,6.6Zm-162.22-163.63l162.22,162.22,5.18-5.18-162.22-162.22-5.18,5.18Z" fill="#002346"></path>
  </g>
  <g>
    <rect x="508.89" y="407.37" width="26.11" height="159.06" fill="#fff"></rect>
    <path d="M535.5,566.93h-27.11v-160.06h27.11v160.06Zm-26.11-1h25.11v-158.06h-25.11v158.06Z" fill="#002346"></path>
  </g>
  <polygon points="535 473.47 508.89 473.47 508.89 492.55 535 486.92 535 473.47" fill="#ebebeb"></polygon>
  <g>
    <rect x="534.98" y="407.39" width="8.7" height="159.06" fill="#e6e7e8"></rect>
    <path d="M544.18,566.95h-9.7v-160.06h9.7v160.06Zm-8.7-1h7.7v-158.06h-7.7v158.06Z" fill="#002346"></path>
  </g>
  <g>
    <rect x="235.38" y="407.37" width="26.11" height="159.06" fill="#fff"></rect>
    <path d="M261.99,566.93h-27.11v-160.06h27.11v160.06Zm-26.11-1h25.11v-158.06h-25.11v158.06Z" fill="#002346"></path>
  </g>
  <g>
    <rect x="261.47" y="407.39" width="8.7" height="159.06" fill="#e6e7e8"></rect>
    <path d="M270.67,566.95h-9.7v-160.06h9.7v160.06Zm-8.7-1h7.7v-158.06h-7.7v158.06Z" fill="#002346"></path>
  </g>
  <g>
    <rect x="215.46" y="430.7" width="333.23" height="48.96" fill="#fff"></rect>
    <path d="M549.19,480.16H214.96v-49.96h334.23v49.96Zm-333.23-1h332.23v-47.96H215.96v47.96Z" fill="#002346"></path>
  </g>
  <rect x="548.7" y="430.68" width="4.89" height="48.96" fill="#ebebeb"></rect>
  <polygon points="422.11 380.77 356.96 380.77 310.89 426.84 310.89 491.99 356.96 538.06 422.11 538.06 468.17 491.99 468.17 426.84 422.11 380.77" fill="#fafafa"></polygon>
  <path d="M332.34,466.25l8.34-.74c.07,1.54,.44,3.05,1.09,4.45,.7,1.5,2.21,2.45,3.87,2.44,1.14,.1,2.26-.36,3-1.24,.69-.84,1.04-1.91,1-3,0-1.02-.35-2.02-1-2.81-1.26-1.16-2.8-1.96-4.47-2.33-3.16-.8-6.01-2.5-8.22-4.89-1.72-2.23-2.6-4.99-2.48-7.8-.02-2.05,.41-4.07,1.27-5.93,.8-1.8,2.13-3.31,3.81-4.34,2.14-1.18,4.56-1.73,7-1.59,3.04-.21,6.04,.83,8.29,2.88,1.9,1.91,3,5,3.4,9.14l-8.26,.7c-.07-1.44-.55-2.82-1.38-4-.75-.86-1.86-1.31-3-1.23-.87-.06-1.71,.28-2.3,.92-.52,.63-.8,1.42-.77,2.24,0,.63,.22,1.25,.63,1.73,.84,.76,1.88,1.28,3,1.48,2.91,.76,5.68,1.96,8.23,3.56,1.59,1.12,2.84,2.66,3.62,4.45,.77,1.88,1.15,3.9,1.12,5.93,.04,2.46-.47,4.9-1.48,7.15-.88,2.05-2.36,3.79-4.23,5-2.07,1.2-4.43,1.78-6.82,1.69-4.81,0-8.14-1.33-10-4-1.98-2.92-3.11-6.33-3.26-9.86Z" fill="#fff"></path>
  <path d="M360.48,439.24h26.69v10h-8.89v30.38h-8.77v-30.41h-8.89l-.14-9.97Z" fill="#fff"></path>
  <path d="M388.61,459.45c0-6.59,1.29-11.73,3.87-15.4,4.42-6,12.87-7.27,18.86-2.85,1.08,.79,2.03,1.74,2.83,2.82,2.6,3.6,3.9,8.64,3.9,15.13,.12,3.94-.45,7.87-1.68,11.61-.92,2.75-2.6,5.2-4.83,7.05-2.26,1.72-5.03,2.61-7.87,2.52-2.81,.11-5.58-.65-7.94-2.18-2.33-1.75-4.1-4.14-5.1-6.88-1.44-3.77-2.13-7.79-2.04-11.82Zm8.76,0c0,4.08,.54,7,1.61,8.77,1.24,2.4,4.2,3.34,6.6,2.1,0,0,.01,0,.02,0,.89-.47,1.61-1.2,2.08-2.09,1-1.75,1.48-4.88,1.48-9.38,.2-2.87-.35-5.75-1.6-8.34-.88-1.63-2.6-2.64-4.45-2.62-1.81,.02-3.45,1.05-4.25,2.67-.99,1.86-1.49,4.86-1.49,9v-.1Z" fill="#fff"></path>
  <path d="M422.67,439.24h14.56c2.77-.19,5.44,1.03,7.13,3.23,1.74,2.73,2.56,5.93,2.36,9.16,.2,3.38-.71,6.73-2.58,9.55-1.9,2.38-4.85,3.67-7.88,3.44h-4.86v15h-8.79l.06-40.38Zm8.73,17.21h2.15c1.32,.14,2.63-.32,3.56-1.26,.7-.91,1.06-2.05,1-3.2,.08-1.14-.2-2.28-.8-3.26-.81-.98-2.07-1.48-3.33-1.32h-2.6l.02,9.04Z" fill="#fff"></path>
  <g>
    <path d="M366.28,627.08c.66-15.01,2.36-26.67,5.37-33.76,24.62-58,50.45-71.84,50.45-71.84l78.22,9.27s8.07,1.82,29.41,96.59l-163.45-.26Z" fill="#00BFD2"></path>
    <path d="M530.36,627.84l-164.6-.26,.02-.52c.69-15.69,2.51-27.11,5.41-33.94,24.41-57.5,50.41-71.95,50.67-72.09l.14-.07,78.38,9.29c.39,.09,8.67,2.98,29.84,96.98l.14,.61Zm-163.55-1.26l162.3,.25c-20.05-88.89-28.26-95.23-28.92-95.6l-77.98-9.24c-2.03,1.18-26.75,16.51-50.09,71.52-2.82,6.64-4.6,17.76-5.31,33.07Z" fill="#002346"></path>
  </g>
  <g>
    <path d="M580.79,492.85c-1.71-101.32-68.41-215.41-68.41-215.41l-.05,.12c-1.27-2.51-21-26.25-40.55-22.46-60.94,11.82-173.22,176.25-193.82,200.2-2.67,3.09,95.84,84.46,223.36,57.6,52.34-11.02,79.47-16.65,79.47-20.05Z" fill="#002346"></path>
    <path d="M449.39,518.8c-42.21,0-78.27-10.45-103.82-20.93-39.98-16.4-65.3-37.21-67.87-41.58-.13-.21-.51-.86-.11-1.32,3.73-4.34,10.65-13.53,19.42-25.17,40.45-53.71,124.62-165.48,174.68-175.19,18.64-3.61,37.03,17.04,40.54,21.89l.07-.18,.51,.87c.67,1.14,66.79,115.36,68.48,215.65h0c0,3.56-18.32,7.59-76.24,19.78l-3.62,.76c-18.11,3.81-35.54,5.41-52.04,5.41Zm-170.97-63.27c.27,.92,4.09,4.97,12.63,11.26,15.86,11.67,100.53,68.72,210.17,45.62l3.62-.76c45.42-9.56,75.43-15.88,75.45-18.79-1.61-95.37-61.68-203.46-67.84-214.28l-.08,.19-.49-.97c-1.07-2.12-20.81-25.91-40.01-22.19-49.68,9.64-133.7,121.2-174.07,174.81-8.71,11.57-15.61,20.73-19.38,25.13Z" fill="#002346"></path>
  </g>
  <path d="M498.61,268.02c-2.46-1.63-5.73-1.63-8.55-1.32-4.59,.62-9.08,1.8-13.38,3.52-13.6,5.07-26.39,12.37-38.72,19.95-17.4,10.81-34.22,22.53-50.38,35.11-19.47,15-38.23,30.87-56.26,47.61-19.79,18.31-38.73,37.55-56.61,57.73-2.24,2.53-4.46,5.08-6.66,7.63-.84,1,.58,2.41,1.43,1.43,17.64-20.43,36.31-39.96,55.93-58.5,18-17.03,36.71-33.24,56.12-48.64,16.39-13.05,33.43-25.28,51.05-36.62,12.84-8.19,26.12-16.07,40.19-22,4.61-2.03,9.41-3.61,14.32-4.73,3-.62,6.33-1,9.16-.1,.48,.15,.93,.38,1.34,.66,1.08,.72,2.09-1,1-1.74h.02Z" fill="#002346"></path>
  <g>
    <path d="M454.25,327.74s-5.46,51.54-6.1,55.6c0,0,23.09,24.29,45.47,1.86,0,0-3.78-12.25-10.67-43.77l-28.7-13.69Z" fill="#f2b3c1"></path>
    <path d="M472.95,395.21c-.11,0-.21,0-.32,0-13.89-.17-24.73-11.41-24.84-11.52l-.17-.18,.04-.24c.63-4,6.04-55.06,6.1-55.58l.07-.7,29.56,14.1,.05,.24c6.81,31.14,10.62,43.61,10.66,43.73l.09,.29-.21,.21c-6.39,6.41-13.47,9.66-21.02,9.66Zm-24.27-12.04c1.41,1.4,11.43,10.89,23.97,11.04,7.31,.08,14.18-2.99,20.41-9.15-.6-2.03-4.32-14.86-10.54-43.28l-27.84-13.28c-.67,6.32-5.25,49.47-5.99,54.67Z" fill="#002346"></path>
  </g>
  <g>
    <path d="M503.87,316.21l-9.32-.58,.64-10.39,9.31,.58c2.86,.2,5.03,2.65,4.88,5.51h0c-.2,2.86-2.65,5.03-5.51,4.88Z" fill="#f2b3c1"></path>
    <path d="M504.14,316.71c-.1,0-.2,0-.3,0h0s-9.82-.61-9.82-.61l.7-11.39,9.81,.61c3.11,.21,5.51,2.92,5.35,6.03-.21,3.02-2.75,5.36-5.73,5.36Zm-.24-1.01c2.57,.13,4.8-1.85,4.98-4.41,.13-2.56-1.85-4.8-4.41-4.98l-8.8-.55-.58,9.39,8.82,.55Z" fill="#002346"></path>
  </g>
  <g>
    <path d="M441.07,305.25l9.32,.58-.64,10.39-9.31-.58c-2.86-.2-5.03-2.65-4.88-5.51h0c.2-2.86,2.65-5.03,5.51-4.88Z" fill="#f2b3c1"></path>
    <path d="M450.21,316.74l-9.81-.61c-3.11-.21-5.51-2.92-5.35-6.03,.21-3.12,2.92-5.51,6.03-5.35h0s9.82,.61,9.82,.61l-.7,11.39Zm-9.42-11c-2.47,0-4.56,1.93-4.74,4.42-.13,2.56,1.85,4.8,4.41,4.98l8.8,.55,.58-9.39-8.82-.55c-.08,0-.16,0-.25,0Z" fill="#002346"></path>
  </g>
  <g>
    <rect x="443.38" y="272.81" width="59" height="72" rx="29.5" ry="29.5" fill="#f2b3c1"></rect>
    <path d="M472.88,345.31c-16.54,0-30-13.46-30-30v-13c0-16.54,13.46-30,30-30s30,13.46,30,30v13c0,16.54-13.46,30-30,30Zm0-72c-15.99,0-29,13.01-29,29v13c0,15.99,13.01,29,29,29h0c15.99,0,29-13.01,29-29v-13c0-15.99-13.01-29-29-29Z" fill="#002346"></path>
  </g>
  <g>
    <path d="M458.39,282.02c28.9,11.6,40.92,21.1,44.02,23.83,.35,.31,.89,.07,.9-.4,.1-6.86-1.39-40.66-41.56-31.86-27.14,3.98-5.45,7.62-3.35,8.42Z" fill="#002346"></path>
    <path d="M502.76,306.49c-.25,0-.49-.09-.69-.26-2.99-2.64-14.99-12.15-43.87-23.74-.27-.1-.96-.27-1.77-.47-4.66-1.15-8.83-2.35-8.74-4.24,.06-1.23,1.7-2.87,13.97-4.67,13.43-2.95,23.95-1.43,31.23,4.51,10.38,8.48,10.97,23.46,10.91,27.84,0,.41-.24,.77-.62,.94-.14,.06-.28,.09-.42,.09Zm-28.74-33.85c-3.73,0-7.79,.48-12.17,1.44-12.12,1.78-13.13,3.31-13.15,3.73-.06,1.23,5.99,2.73,7.98,3.22,.91,.23,1.57,.39,1.89,.51h0c29.03,11.65,41.14,21.26,44.16,23.93,.13-4.31-.44-18.89-10.47-27.09-4.68-3.83-10.79-5.75-18.24-5.75Z" fill="#002346"></path>
  </g>
  <g>
    <path d="M461.88,278.14s-9.17,21.51-11.74,25.37c-2.94,4.45-9.11,1.11-9.11,1.11,0,0-2.86-30.27,20.85-26.49Z" fill="#002346"></path>
    <path d="M445.68,306.31c-2.54,0-4.85-1.23-4.89-1.25l-.23-.13-.03-.27c-.06-.65-1.4-15.89,6.59-23.38,3.63-3.41,8.63-4.63,14.84-3.64l.63,.1-.25,.59c-.38,.88-9.22,21.6-11.78,25.45-1.28,1.94-3.13,2.52-4.87,2.52Zm-4.18-2.01c1.13,.54,5.84,2.53,8.22-1.07,2.28-3.42,9.94-21.2,11.44-24.7-5.59-.76-10.08,.41-13.36,3.48-7.07,6.63-6.44,20.2-6.3,22.29Z" fill="#002346"></path>
  </g>
  <g>
    <path d="M493.62,385.2l68.55,18.4,12.81,36.54c3.82,10.89-1.92,22.81-12.8,26.62-2.22,.78-4.56,1.18-6.92,1.18h-34.35s-7.21,47.86-7.21,66.39l-108.91-14.08,1.87-77s-67.92,26.77-94.68,22.63c0,0-30.88-18.52-13.38-42.19,0,0,126.08-51.62,145.38-46.91,0,0,11.06,17.06,27.53,17.06s22.11-8.64,22.11-8.64Z" fill="#00D27C"></path>
    <path d="M514.2,534.9l-109.92-14.21,1.86-76.7c-6.73,2.6-60.01,22.82-87.9,22.82-2.3,0-4.42-.14-6.34-.43l-.18-.07c-.16-.09-15.78-9.61-18.56-23.54-1.31-6.56,.39-13.08,5.04-19.37l.08-.11,.13-.05c5.15-2.11,126.45-51.62,145.69-46.93l.19,.05,.11,.17c.11,.17,11.11,16.83,27.11,16.83s21.64-8.33,21.69-8.41l.2-.3,.35,.09,68.8,18.47,12.9,36.79c3.9,11.13-1.98,23.36-13.11,27.26-2.28,.8-4.66,1.2-7.07,1.2h-33.93c-.71,4.8-7.14,48.54-7.14,65.89v.57Zm-108.9-15.09l107.9,13.95c.14-18.75,7.14-65.42,7.21-65.9l.06-.43h34.79c2.3,0,4.57-.39,6.74-1.15,10.61-3.72,16.22-15.38,12.5-25.99l-12.72-36.29-67.96-18.24c-1.19,1.57-7.31,8.57-22.32,8.57s-26.6-15.32-27.83-17.12c-19.26-4.18-140.08,44.97-144.76,46.88-4.41,6.02-6.02,12.23-4.78,18.47,2.59,12.99,16.8,22.08,18.02,22.84,26.39,3.99,93.64-22.35,94.32-22.62l.7-.28-1.88,77.3Z" fill="#002346"></path>
  </g>
  <g>
    <path d="M477.86,405.68c-2.63,0-5.48-.17-8.57-.56-33.4-4.21-40.65-28.12-40.72-28.36-.08-.27,.08-.54,.34-.62,.27-.08,.54,.08,.62,.34,.07,.23,7.16,23.52,39.88,27.64,32.04,4,38.05-15.08,38.11-15.27,.08-.26,.36-.42,.62-.34,.26,.08,.42,.35,.34,.62-.05,.18-5.15,16.55-30.62,16.55Z" fill="#002346"></path>
    <path d="M514.58,515.3s-.04,0-.06,0l-110.2-12.34c-.27-.03-.47-.28-.44-.55s.28-.47,.55-.44l110.2,12.34c.27,.03,.47,.28,.44,.55-.03,.26-.25,.44-.5,.44Z" fill="#002346"></path>
  </g>
  <g>
    <path d="M543.44,486.08h0c-16.44-2.33-27.88-17.55-25.56-33.99,.26-1.84,.69-3.65,1.29-5.41l13.55-40.09,44.86,6.43,.18,43.21c.04,16.61-13.4,30.11-30.01,30.15-1.44,0-2.88-.1-4.31-.3Z" fill="#f2b3c1"></path>
    <path d="M547.68,486.88c-1.44,0-2.89-.1-4.31-.31h0c-8.08-1.15-15.24-5.37-20.15-11.9-4.91-6.53-6.98-14.57-5.83-22.66,.26-1.86,.7-3.72,1.31-5.5l13.68-40.48,45.7,6.55,.18,43.64c.04,16.86-13.65,30.61-30.51,30.65h-.07Zm-14.62-79.74l-13.42,39.7c-.58,1.73-1.01,3.52-1.26,5.32-1.11,7.82,.9,15.6,5.64,21.92,4.75,6.31,11.67,10.4,19.49,11.51h0c1.4,.2,2.83,.3,4.24,.3,16.31-.04,29.55-13.34,29.51-29.65l-.18-42.78-44.02-6.31Z" fill="#002346"></path>
  </g>
  <g>
    <path d="M531.36,446.2s-29-38.17-23.78-39.79c3.38-1,12.43,4.05,18.44,7.8,2.7,1.69,6.22-.29,6.64-3.73,1.27-10.34,3.48-29.27,4.44-43,1.38-19.79,6.79-20.54,10.3,13.15,3.51,33.69,5.47-29.07,9.81-28.45s2.69,35.55,6.29,37.65c3.6,2.1,4.29-33.47,11.3-34.66,7.01-1.19,.67,34.65,2.41,36.72,1.74,2.07,6.28-23,9.22-22.85,10.36,.43-7.94,75.75-10.21,80.55h0s-6.4,10.58-24.93,8.53c-.02,.05-11.67,.04-19.93-11.92Z" fill="#f2b3c1"></path>
    <path d="M555.86,458.88c-1.45,0-2.98-.08-4.6-.26-1.01,0-12.24-.46-20.31-12.13-2.71-3.56-26.06-34.52-24.41-39.67,.14-.45,.45-.76,.88-.89,3.52-1.04,12.19,3.7,18.85,7.85,1.04,.65,2.29,.71,3.43,.17,1.34-.64,2.26-1.96,2.45-3.54,1.24-10.11,3.47-29.15,4.44-42.97,.45-6.46,1.54-14.17,4.14-14.22h.02c3.54,0,5.83,14.87,7.13,27.35,.71,6.8,1.27,8.78,1.57,9.35,.83-1.46,1.83-9.53,2.65-16.08,1.54-12.4,2.68-20.63,4.39-21.94,.3-.23,.59-.25,.78-.22,2.51,.36,3.16,7.87,3.94,20.2,.47,7.42,1.05,16.66,2.53,17.51,1.03-.08,2.19-7.09,3.04-12.22,1.69-10.2,3.6-21.77,7.93-22.5,.73-.12,1.37,.06,1.91,.56,3.01,2.74,2.05,15.34,1.28,25.47-.34,4.42-.71,9.39-.4,10.64,.73-1.04,2.02-5.53,3.07-9.2,2.67-9.32,4.12-13.7,5.88-13.61,.91,.04,1.66,.54,2.23,1.48,6.17,10.21-9.78,75.07-12.02,79.78-.08,.14-5.68,9.08-20.81,9.08Zm-4.9-1.3l.38,.04c17.96,1.99,24.38-8.19,24.45-8.29,2.38-5.04,17.81-69.25,12.04-78.79-.39-.65-.86-.97-1.42-1,0,0,0,0-.01,0-1.17,0-3.57,8.38-4.86,12.88-2.04,7.13-2.91,9.85-3.95,10.07-.28,.06-.56-.04-.76-.28-.67-.79-.51-3.81,.08-11.58,.67-8.86,1.69-22.24-.96-24.65-.31-.28-.65-.38-1.07-.31-3.63,.62-5.64,12.79-7.11,21.68-1.33,8.06-2.09,12.3-3.53,12.98-.32,.15-.67,.13-1-.06-1.84-1.07-2.35-7.66-3.02-18.31-.51-8.02-1.2-19-3.09-19.27-1.44,.42-3.07,13.49-4.03,21.3-1.69,13.65-2.3,17.1-3.65,17.1h0c-.8,0-1.55-.8-2.55-10.39-2.18-20.89-4.87-26.45-6.13-26.45h0c-.77,.01-2.43,2.81-3.16,13.29-.97,13.85-3.2,32.9-4.44,43.03-.23,1.92-1.36,3.53-3.01,4.32-1.45,.69-3.05,.61-4.39-.23-9.04-5.64-15.61-8.46-18.03-7.74-.09,.03-.17,.08-.22,.24-1.13,3.53,13.89,25.12,24.26,38.77v.02c7.37,10.65,17.39,11.62,19.19,11.7v-.04Z" fill="#002346"></path>
  </g>
  <path d="M408.26,397.41c-1.32,0-2.43-2.75-2.59-6.39l-7.5-169c-.18-4,.85-7.66,2.29-8.14s2.76,2.36,2.93,6.37l7.42,169.07c.18,4-.82,7.59-2.25,8.1h-.3Z" fill="#e1e1e2"></path>
  <g>
    <path d="M504.58,157.19c0,56.13-45.51,101.64-101.64,101.64-19.45,0-37.62-5.46-53.07-14.95-6.62-4.05-12.73-8.84-18.23-14.26-18.73-18.44-30.34-44.08-30.34-72.43,0-56.14,45.5-101.64,101.64-101.64,19.44,0,37.62,5.46,53.07,14.95,6.61,4.05,12.72,8.84,18.22,14.25,18.73,18.43,30.35,44.08,30.35,72.44Z" fill="#00D27C"></path>
    <path d="M402.94,259.33c-18.89,0-37.33-5.2-53.33-15.02-6.61-4.04-12.77-8.87-18.32-14.33-19.66-19.36-30.49-45.21-30.49-72.79,0-56.32,45.82-102.14,102.14-102.14,18.89,0,37.33,5.2,53.33,15.02,6.6,4.04,12.76,8.86,18.31,14.32,19.67,19.35,30.5,45.21,30.5,72.8,0,56.32-45.82,102.14-102.14,102.14Zm0-203.28c-55.77,0-101.14,45.37-101.14,101.14,0,27.31,10.72,52.91,30.19,72.07,5.49,5.41,11.59,10.19,18.14,14.19,15.84,9.73,34.11,14.88,52.81,14.88,55.77,0,101.14-45.37,101.14-101.14,0-27.32-10.73-52.92-30.2-72.08-5.49-5.4-11.59-10.18-18.13-14.18-15.84-9.73-34.11-14.88-52.81-14.88Z" fill="#002346"></path>
  </g>
  <g>
    <circle cx="402.91" cy="157.17" r="82.08" transform="translate(6.87 330.93) rotate(-45)" fill="#00BFD2"></circle>
    <path d="M402.91,239.71c-21.15,0-42.29-8.05-58.39-24.15-15.6-15.6-24.19-36.33-24.19-58.39s8.59-42.8,24.19-58.39l.35,.35-.35-.35c32.2-32.2,84.59-32.2,116.79,0,15.6,15.6,24.19,36.33,24.19,58.39s-8.59,42.8-24.19,58.39c-16.1,16.1-37.25,24.15-58.39,24.15Zm0-164.08c-20.89,0-41.78,7.95-57.69,23.86-15.41,15.41-23.89,35.9-23.89,57.69s8.49,42.28,23.89,57.69c31.81,31.81,83.56,31.81,115.37,0,15.41-15.41,23.89-35.9,23.89-57.69s-8.49-42.28-23.89-57.69c-15.9-15.9-36.79-23.86-57.69-23.86Z" fill="#002346"></path>
  </g>
  <g>
    <path d="M456.24,143.31c-6.74-9.11-19.72,0-23.61,9.57-1.05,2.37-1.75,4.89-2.06,7.47l-4.28-29.23-3.39-27.71c-.81-5.03-5.55-8.45-10.58-7.64-4.76,.77-8.13,5.07-7.73,9.88l-.85-6.9c-.63-5.05-5.23-8.64-10.28-8.01-5.05,.63-8.64,5.23-8.01,10.28l1.18,9.61c-.64-5.05-5.24-8.62-10.29-8-.39,.04-.77,.11-1.15,.21h0c-4.49,1.16-7.43,5.46-6.88,10.07l1.47,12c-.62-5.04-5.21-8.62-10.25-8-.4,.05-.79,.12-1.18,.22h0c-4.47,1.14-7.4,5.42-6.87,10l2.94,24,2.1,17.18,2.78,22.57c2,16.13,8.26,25.23,17.6,29.34,14.33,6.29,40.59,6.36,52.38-3.21,10.33-8.37,17-28.53,18.55-41,1.55-12.47,11.15-28.99,8.41-32.7Z" fill="#002346"></path>
    <path d="M401.08,225.15c-8.91,0-17.81-1.59-24.38-4.47-10.11-4.45-15.97-14.18-17.9-29.74l-7.82-63.75c-.56-4.81,2.55-9.34,7.24-10.55,.41-.1,.83-.18,1.24-.23,3.78-.46,7.33,1.33,9.29,4.32l-.95-7.76c-.58-4.84,2.54-9.4,7.25-10.62,.4-.1,.81-.18,1.22-.22,3.79-.47,7.36,1.33,9.33,4.33l-.66-5.39c-.66-5.32,3.13-10.18,8.44-10.84,2.57-.32,5.12,.38,7.17,1.98,2.05,1.6,3.35,3.89,3.67,6.47l.37,3c1.15-3.27,4.02-5.83,7.63-6.41,2.57-.41,5.14,.2,7.25,1.72,2.11,1.52,3.5,3.77,3.91,6.34l3.39,27.73,3.84,26.19c.38-1.57,.9-3.1,1.55-4.57,2.78-6.83,9.65-12.79,15.64-13.54,3.56-.45,6.62,.89,8.83,3.88h0c1.63,2.21-.43,7.83-3.05,14.94-2.14,5.82-4.56,12.41-5.27,18.11-1.4,11.24-7.72,32.4-18.73,41.33-6.58,5.34-17.55,7.75-28.51,7.75Zm-40.43-107.81c-.35,0-.71,.02-1.06,.06-.38,.05-.75,.12-1.12,.21-4.21,1.08-7,5.14-6.5,9.46l7.82,63.75c1.88,15.18,7.54,24.65,17.31,28.94,14.4,6.32,40.2,6.33,51.86-3.14,10.79-8.74,16.99-29.59,18.37-40.67,.72-5.82,3.17-12.47,5.32-18.34,2.31-6.29,4.49-12.23,3.18-14-2.01-2.72-4.67-3.89-7.9-3.48-5.67,.71-12.19,6.4-14.85,12.94-1.04,2.35-1.72,4.81-2.03,7.34l-.45,3.71-4.82-32.93-3.39-27.72c-.37-2.28-1.61-4.3-3.5-5.67-1.89-1.37-4.2-1.91-6.5-1.54-4.48,.72-7.69,4.83-7.31,9.35l-.99,.1-.85-6.9c-.29-2.31-1.46-4.37-3.29-5.8-1.84-1.43-4.12-2.06-6.43-1.77-4.77,.59-8.17,4.95-7.58,9.72l1.18,9.61s0,0,0,0h0s-.99,.13-.99,.13c-.6-4.76-4.97-8.15-9.73-7.57-.37,.04-.73,.11-1.09,.2-4.23,1.09-7.03,5.19-6.51,9.53l1.47,12-.99,.12c-.54-4.4-4.31-7.63-8.63-7.63Z" fill="#002346"></path>
  </g>
  <g>
    <path d="M474.23,84.75l-124.36,159.13c-6.62-4.05-12.73-8.84-18.23-14.26l124.37-159.12c6.61,4.05,12.72,8.84,18.22,14.25Z" fill="#00D27C"></path>
    <path d="M349.99,244.54l-.38-.23c-6.61-4.04-12.78-8.87-18.32-14.33l-.32-.31,.27-.35,124.64-159.47,.38,.23c6.6,4.04,12.76,8.86,18.31,14.32l.32,.31-124.91,159.83Zm-17.68-14.96c5.3,5.18,11.17,9.77,17.44,13.64l123.81-158.43c-5.3-5.17-11.17-9.76-17.43-13.63l-123.82,158.42Z" fill="#002346"></path>
  </g>
  <g>
    <path d="M210.02,247.88H107.86v-46.12l102.16-121.43h48.84v124.14h25.31v43.55h-25.3v37.73h-48.81l-.04-37.87Zm0-43.51v-63.52l-54,63.52h54Z" fill="#002346"></path>
    <path d="M259.37,286.25h-49.81l-.04-37.87H107.36v-46.8l.12-.14,102.31-121.61h49.57v124.14h25.31v44.55h-25.3v37.73Zm-48.81-1h47.81v-37.73h25.3v-42.55h-25.31V80.83h-48.11l-101.89,121.11v45.44h102.16l.04,37.87Zm-.04-80.38h-55.58l55.58-65.38v65.38Zm-53.42-1h52.42v-61.66l-52.42,61.66Z" fill="#002346"></path>
  </g>
  <g>
    <path d="M658.26,80.33v205.28h-56.8V151.09c-8.28,6.44-17.14,12.1-26.45,16.93-10.4,5.02-21.21,9.17-32.3,12.39v-46c19.09-6.17,33.91-13.57,44.47-22.18,10.57-8.63,19.04-19.55,24.78-31.93l46.3,.03Z" fill="#002346"></path>
    <path d="M658.76,286.11h-57.8V152.11c-8.06,6.18-16.71,11.68-25.72,16.36-10.41,5.02-21.3,9.2-32.39,12.43l-.64,.19v-47.03l.35-.11c18.94-6.13,33.85-13.56,44.31-22.09,10.44-8.53,18.97-19.51,24.64-31.75l.13-.29,47.12,.03v206.28Zm-56.8-1h55.8V80.83l-45.48-.03c-5.74,12.26-14.3,23.25-24.78,31.82-10.5,8.56-25.39,16.01-44.29,22.16v44.97c10.81-3.18,21.43-7.28,31.58-12.17,9.25-4.79,18.12-10.47,26.36-16.87l.81-.63v135.04Z" fill="#002346"></path>
  </g>
  <path d="M108.42,294.14v-31.24h22.61v3.64h-18.47v9.58h17.29v3.67h-17.29v10.63h19.14v3.69l-23.28,.03Z" fill="#002346"></path>
  <path d="M136.94,294.14v-22.64h3.43v3.43c.58-1.22,1.41-2.3,2.44-3.18,.72-.5,1.58-.77,2.46-.77,1.43,.03,2.81,.47,4,1.26l-1.33,3.55c-.84-.53-1.82-.81-2.81-.82-.81-.02-1.61,.25-2.25,.75-.69,.53-1.2,1.26-1.44,2.1-.44,1.45-.65,2.96-.64,4.48v11.84h-3.86Z" fill="#002346"></path>
  <path d="M151.48,294.14v-22.64h3.44v3.43c.6-1.25,1.47-2.36,2.54-3.24,.72-.51,1.57-.78,2.45-.78,1.41,.04,2.78,.48,3.95,1.26l-1.32,3.55c-.85-.52-1.82-.81-2.82-.82-.81-.02-1.61,.25-2.25,.75-.69,.53-1.19,1.27-1.44,2.1-.43,1.45-.64,2.96-.63,4.48v11.85l-3.92,.06Z" fill="#002346"></path>
  <path d="M164.63,282.83c0-4.19,1.15-7.3,3.44-9.32,1.97-1.68,4.51-2.57,7.1-2.49,2.87-.1,5.64,1.02,7.64,3.08,2.08,2.3,3.16,5.34,3,8.44,.1,2.36-.35,4.72-1.33,6.87-.85,1.65-2.18,3-3.81,3.88-1.67,.93-3.56,1.41-5.47,1.39-2.87,.13-5.66-.96-7.68-3-2.1-2.45-3.14-5.63-2.89-8.85Zm3.95,0c-.17,2.33,.5,4.64,1.89,6.51,2.3,2.63,6.3,2.89,8.93,.59,0,0,0,0,0,0,.21-.18,.41-.37,.59-.58,1.41-1.92,2.08-4.28,1.91-6.65,.16-2.28-.52-4.54-1.91-6.35-2.32-2.64-6.34-2.9-8.98-.58,0,0-.02,.01-.02,.02-.2,.17-.39,.36-.56,.56-1.38,1.87-2.04,4.17-1.86,6.49Z" fill="#002346"></path>
  <path d="M190.3,294.14v-22.64h3.44v3.43c.57-1.22,1.4-2.31,2.43-3.18,.72-.5,1.58-.77,2.46-.77,1.41,.04,2.78,.48,3.95,1.26l-1.32,3.55c-.85-.52-1.82-.81-2.82-.82-.82-.02-1.62,.25-2.27,.75-.68,.53-1.18,1.27-1.42,2.1-.44,1.45-.66,2.96-.64,4.48v11.84h-3.81Z" fill="#002346"></path>
  <path d="M122.69,332.96v-3.33c-1.56,2.46-4.29,3.93-7.2,3.87-1.28,0-2.55-.26-3.72-.78-1.02-.4-1.91-1.06-2.59-1.92-.58-.86-.99-1.83-1.19-2.85-.18-1.19-.25-2.39-.22-3.59v-14h3.83v12.55c-.05,1.34,.03,2.68,.24,4,.21,.95,.75,1.8,1.53,2.39,.85,.59,1.87,.89,2.9,.86,1.14,0,2.26-.3,3.24-.88,.96-.55,1.72-1.4,2.15-2.42,.47-1.42,.68-2.91,.62-4.41v-12.13h3.89v22.64h-3.48Z" fill="#002346"></path>
  <path d="M132.17,332.96v-22.64h3.44v3.21c1.57-2.43,4.32-3.85,7.21-3.73,1.29-.02,2.57,.23,3.76,.74,1.02,.39,1.9,1.06,2.57,1.92,.59,.86,1,1.83,1.2,2.85,.17,1.24,.25,2.48,.21,3.73v13.92h-3.83v-13.73c.05-1.16-.11-2.33-.46-3.44-.3-.78-.86-1.43-1.58-1.85-.81-.48-1.74-.72-2.68-.69-1.56-.02-3.07,.53-4.24,1.55-1.19,1.05-1.72,3-1.72,5.92v12.36l-3.88-.12Z" fill="#002346"></path>
  <path d="M171.17,330.17c-1.21,1.08-2.61,1.95-4.12,2.55-1.35,.51-2.78,.77-4.22,.76-2.08,.13-4.13-.52-5.74-1.84-1.32-1.18-2.05-2.88-2-4.65-.02-2.1,1.02-4.06,2.75-5.24,.85-.57,1.78-1,2.77-1.27,1.13-.25,2.28-.44,3.43-.57,2.33-.21,4.63-.65,6.87-1.32v-1c.12-1.2-.27-2.4-1.08-3.3-1.25-.96-2.81-1.42-4.38-1.3-1.4-.1-2.79,.23-4,.94-1.02,.89-1.69,2.11-1.91,3.44l-3.74-.52c.25-1.41,.84-2.74,1.72-3.88,.9-1.08,2.09-1.87,3.43-2.28,1.66-.57,3.4-.84,5.15-.81,1.6-.05,3.2,.18,4.72,.69,1.02,.33,1.94,.92,2.66,1.71,.61,.76,1.02,1.65,1.2,2.61,.16,1.17,.22,2.36,.19,3.54v5.15c-.05,2.29,.03,4.59,.24,6.87,.19,.95,.52,1.87,1,2.71h-4c-.5-.93-.82-1.94-.94-2.99Zm-.32-8.59c-2.03,.72-4.13,1.2-6.27,1.44-1.17,.12-2.32,.38-3.43,.78-.62,.25-1.15,.69-1.52,1.25-.35,.54-.54,1.17-.53,1.82-.02,.98,.41,1.92,1.15,2.56,.98,.75,2.21,1.1,3.44,1,1.4,.02,2.78-.32,4-1,1.07-.6,1.94-1.51,2.48-2.61,.47-1.22,.68-2.52,.61-3.83l.07-1.41Z" fill="#002346"></path>
  <path d="M195.56,332.96v-3.33c-1.56,2.46-4.29,3.93-7.2,3.87-1.29,0-2.56-.26-3.74-.78-1.01-.41-1.9-1.07-2.58-1.92-.59-.85-1-1.83-1.18-2.85-.19-1.19-.27-2.39-.24-3.59v-14h3.84v12.55c-.04,1.34,.04,2.68,.24,4,.21,.95,.75,1.8,1.53,2.39,.85,.59,1.87,.89,2.9,.86,1.14,0,2.26-.3,3.25-.88,.96-.55,1.71-1.4,2.15-2.42,.47-1.42,.68-2.92,.61-4.41v-12.13h3.85v22.64h-3.43Z" fill="#002346"></path>
  <path d="M213.38,329.53l.56,3.43c-.95,.22-1.92,.34-2.9,.35-1.12,.05-2.23-.17-3.24-.66-.72-.38-1.29-.98-1.63-1.71-.41-1.47-.56-3-.47-4.52v-13h-2.81v-3.1h2.81v-5.62l3.81-2.3v7.92h3.87v3h-3.87v13.33c-.04,.71,.03,1.42,.21,2.11,.14,.31,.37,.57,.67,.74,.4,.21,.85,.31,1.3,.29,.57-.05,1.13-.13,1.69-.26Z" fill="#002346"></path>
  <path d="M217.17,332.96v-31.26h3.84v11.19c1.67-2.02,4.17-3.16,6.79-3.1,1.52-.04,3.02,.3,4.37,1,1.17,.59,2.1,1.55,2.66,2.73,.62,1.64,.89,3.4,.79,5.15v14.35h-3.85v-14.36c.12-1.51-.33-3-1.26-4.19-.94-.91-2.22-1.39-3.53-1.3-1.13,0-2.24,.3-3.22,.87-.95,.55-1.7,1.4-2.12,2.41-.49,1.33-.71,2.75-.66,4.17v12.4l-3.81-.06Z" fill="#002346"></path>
  <path d="M239.99,321.63c0-4.19,1.14-7.29,3.43-9.3,1.98-1.7,4.52-2.6,7.13-2.53,2.88-.1,5.68,1.02,7.69,3.09,2.09,2.31,3.17,5.36,3,8.47,.11,2.36-.34,4.71-1.3,6.86-.85,1.66-2.19,3.02-3.83,3.9-1.67,.93-3.55,1.41-5.46,1.39-2.88,.12-5.68-.99-7.69-3.05-2.12-2.43-3.19-5.61-2.97-8.83Zm4,0c-.18,2.33,.49,4.65,1.89,6.53,1.19,1.4,2.95,2.2,4.79,2.16,1.83,.04,3.58-.77,4.75-2.18,1.41-1.91,2.08-4.26,1.89-6.63,.17-2.28-.51-4.55-1.9-6.37-2.31-2.63-6.31-2.89-8.94-.59-.21,.18-.41,.38-.59,.59-1.4,1.86-2.07,4.17-1.89,6.49h0Z" fill="#002346"></path>
  <path d="M265.62,332.96v-22.64h3.44v3.43c.57-1.23,1.4-2.31,2.44-3.18,.72-.5,1.57-.77,2.45-.77,1.42,.02,2.81,.45,4,1.24l-1.32,3.57c-.84-.54-1.82-.83-2.82-.84-.81,0-1.6,.26-2.25,.75-.68,.54-1.19,1.27-1.44,2.1-.43,1.45-.64,2.96-.63,4.48v11.86h-3.87Z" fill="#002346"></path>
  <path d="M280.27,306.11v-4.41h3.84v4.41h-3.84Zm0,26.85v-22.64h3.84v22.64h-3.84Z" fill="#002346"></path>
  <path d="M287.94,332.96v-3.1l14.43-16.56c-1.72,0-3.09,.12-4.33,.12h-9.24v-3.1h18.51v2.57l-12.26,14.37-2.37,2.63c1.72-.14,3.33-.21,4.84-.21h10.48v3.34l-20.06-.06Z" fill="#002346"></path>
  <path d="M327.3,325.67l4,.49c-.5,2.14-1.71,4.04-3.43,5.4-1.89,1.33-4.16,2.01-6.47,1.92-2.95,.15-5.82-.97-7.89-3.07-2.06-2.37-3.11-5.46-2.91-8.59-.2-3.23,.86-6.41,2.95-8.88,1.96-2.11,4.74-3.26,7.62-3.15,2.81-.1,5.53,1.03,7.44,3.09,2.03,2.43,3.06,5.54,2.86,8.7v1h-16.93c0,2.09,.75,4.11,2.11,5.7,1.22,1.31,2.95,2.04,4.74,2,1.29,.03,2.56-.36,3.61-1.11,1.09-.92,1.88-2.14,2.3-3.5Zm-12.61-6.2h12.64c-.04-1.54-.54-3.04-1.44-4.29-1.15-1.45-2.91-2.27-4.76-2.22-1.65-.06-3.26,.56-4.44,1.72-1.26,1.28-1.97,3-2,4.79h0Z" fill="#002346"></path>
  <path d="M350.77,332.96v-2.94c-1.31,2.23-3.75,3.55-6.34,3.44-1.78,0-3.52-.52-5-1.5-1.54-1.03-2.76-2.48-3.52-4.17-.86-1.94-1.28-4.03-1.23-6.15-.03-2.11,.35-4.2,1.13-6.16,.66-1.74,1.87-3.21,3.43-4.22,1.5-.98,3.26-1.5,5.05-1.48,1.27-.02,2.53,.27,3.66,.86,1.02,.55,1.9,1.32,2.59,2.25v-11.17h3.83v31.3l-3.6-.06Zm-12.13-11.29c-.18,2.31,.47,4.61,1.82,6.49,1.04,1.34,2.63,2.14,4.33,2.16,1.67,0,3.25-.75,4.28-2.06,1.3-1.82,1.91-4.05,1.71-6.28,.23-2.42-.38-4.84-1.71-6.87-1.05-1.38-2.69-2.19-4.42-2.18-1.67-.02-3.26,.76-4.27,2.09-1.32,1.95-1.93,4.3-1.74,6.65Z" fill="#002346"></path>
  <g>
    <path d="M429.48,398.4c.55-1.49,20.66-8.56,18-11.79s-21,6.65-20.93,4.21,18.31-11.65,17.39-14c-.92-2.35-33.5,14.66-17.33,3.18,16.17-11.48,14.23-14,3.74-9-7.18,3.38-17.52,7.7-23.18,10.02-1.3,.65-2.89,.12-3.54-1.18-.18-.35-.27-.74-.28-1.13,.19-4.14,.18-10.22-1.32-11.64-2.34-2.21-13.46,23.53-13.46,23.53h0c-6.86-.78-48.33,11.21-76,22.57-17.11,7-27.86,22.85-18.75,39l1.72,3c9.37,16.62,37.73,16.87,52.64,5.09,22-17.38,47.58-40.77,51.53-45.8h0c3.1-.23,46.77-12.55,44-18-.71-1.44-14.77,3.42-14.23,1.94Z" fill="#f2b3c1"></path>
    <path d="M322.76,468.97c-2.79,0-5.58-.26-8.29-.79-8.83-1.74-15.71-6.27-19.37-12.76l-1.72-3c-3.62-6.42-4.35-13.24-2.1-19.7,2.93-8.43,10.62-15.72,21.1-20.01,27.75-11.39,68.13-22.99,75.87-22.63,1.97-4.54,10.15-22.98,13.22-23.62,.34-.07,.66,.02,.9,.25,1.29,1.22,1.79,5.27,1.48,12.03,0,.28,.08,.6,.23,.88,.53,1.06,1.82,1.48,2.87,.96,4.43-1.82,15.5-6.4,23.19-10.02,5.1-2.43,8.03-3.07,8.71-1.91,.9,1.54-3.12,5.5-11.95,11.77-2.35,1.67-3.42,2.56-3.9,3.03,1.55-.37,5.32-1.92,8.44-3.2,6.98-2.86,11.3-4.56,12.52-4.04,.27,.11,.39,.3,.44,.44,.57,1.46-2.37,3.57-9.21,8.02-3.11,2.02-7.74,5.03-8.12,6.06,.84,.11,4.1-1.08,6.75-2.04,7.2-2.63,12.43-4.34,14.04-2.38,.31,.38,.42,.84,.32,1.32-.51,2.24-5.81,4.88-12.7,8.11-1.85,.87-3.89,1.82-4.91,2.43,1.17-.16,3.3-.67,4.97-1.07,5.73-1.38,8.12-1.84,8.62-.83,.19,.37,.32,.98-.12,1.77-3.37,5.98-39.73,16.3-44.07,16.92-4.38,5.39-29.85,28.63-51.48,45.72-6.76,5.34-16.26,8.32-25.73,8.32Zm65.05-77.91c-8.39,0-47.79,11.38-75.06,22.57-10.21,4.18-17.7,11.25-20.53,19.41-2.15,6.19-1.45,12.72,2.03,18.88l1.72,3c3.52,6.24,10.16,10.6,18.7,12.28,11.63,2.29,24.67-.59,33.2-7.33,21.81-17.23,47.49-40.68,51.45-45.72l.14-.17,.22-.02c3.28-.24,40.33-10.82,43.49-16.44,.25-.43,.17-.68,.1-.83-.58-.31-4.9,.73-7.49,1.36-4.88,1.17-6.17,1.4-6.65,.86-.16-.18-.21-.43-.12-.68h0c.24-.65,1.67-1.37,6.05-3.42,4.66-2.18,11.71-5.48,12.15-7.42,.04-.18,0-.32-.11-.46-1.29-1.56-8.29,.99-12.93,2.69-5.01,1.83-6.98,2.47-7.78,1.89-.23-.16-.35-.41-.34-.7,.04-1.28,2.65-3.12,8.6-6.99,3.27-2.13,8.68-5.64,8.82-6.73-1.21-.22-7.47,2.36-11.65,4.08-8.26,3.39-9.68,3.81-10.13,2.99-.31-.56-.15-1.17,4.63-4.56,10.13-7.19,11.85-9.98,11.66-10.45-.2-.22-1.99-.28-7.42,2.31-7.71,3.63-18.8,8.23-23.21,10.03-1.51,.76-3.4,.13-4.18-1.42-.21-.42-.32-.88-.33-1.34,.28-6.12-.16-10.33-1.16-11.29-1.53-.13-7.77,12.04-12.66,23.36l-.15,.34-.37-.04c-.2-.02-.44-.03-.7-.03Z" fill="#002346"></path>
  </g>
  <path d="M389.79,589.51c-8.81,0-15.17-2.47-15.32-2.53-.26-.1-.38-.39-.28-.65,.1-.26,.39-.38,.65-.28,.09,.04,9.33,3.69,20.83,2.17,10.59-1.4,25.34-7.62,35.46-29.27l14.43-30.33c.12-.25,.42-.35,.67-.24,.25,.12,.36,.42,.24,.67l-14.43,30.33c-11.68,24.98-29.52,30.14-42.24,30.14Z" fill="#002346"></path>
  <path d="M522.6,607.88c-8.97,0-17.73-3.19-22.36-5.21-3.89-1.69-7.3-4.28-9.87-7.48-16.7-20.84-10.89-60.55-10.83-60.95,.04-.27,.3-.46,.57-.42,.27,.04,.46,.3,.42,.57-.06,.39-5.8,39.68,10.62,60.17,2.46,3.07,5.75,5.56,9.49,7.19,4.95,2.15,14.68,5.67,24.22,5.05,.28-.01,.51,.19,.53,.47,.02,.28-.19,.51-.47,.53-.77,.05-1.55,.07-2.32,.07Z" fill="#002346"></path>
  <path d="M388.6,627.4c-.28,0-.5-.22-.5-.5v-37.32c0-.28,.22-.5,.5-.5s.5,.22,.5,.5v37.32c0,.28-.22,.5-.5,.5Z" fill="#002346"></path>
  <path d="M501.93,627.25c-.26,0-.48-.2-.5-.47l-1.49-24.53c-.02-.28,.19-.51,.47-.53,.27-.02,.51,.19,.53,.47l1.49,24.53c.02,.28-.19,.51-.47,.53-.01,0-.02,0-.03,0Z" fill="#002346"></path>
  <path d="M769.97,627.58H80.63c-.28,0-.5-.22-.5-.5s.22-.5,.5-.5H769.97c.28,0,.5,.22,.5,.5s-.22,.5-.5,.5Z" fill="#002346"></path>
</svg>
